<?xml version="1.0" encoding="UTF-8"?>
<svg id="Capa_1" data-name="Capa 1" xmlns="http://www.w3.org/2000/svg" viewBox="0 0 238.85 209.9">
  <defs>
    <style>
      .cls-1 {
        fill: #1d1d1b;
        stroke-width: 0px;
      }
    </style>
  </defs>
  <path class="cls-1" d="M230.2,202.26h-12.84c-1.73,0-4,.33-5.72,0-2.44-.47-4.25-2.79-6.08-4.46-7.1-6.45-14.19-12.91-21.29-19.36-14.44-13.13-28.88-26.26-43.32-39.38-28.63-26.03-57.27-52.07-85.9-78.1-4.16-3.78-8.32-7.57-12.48-11.35-1.68-1.53-4.78-3.35-5.83-5.3-1.12-2.08-.57-4.87-.57-7.19V3.18l-3,3h27.64c3.84,0,9.37-1.03,13.09,0,.25.07.64-.11.87,0-2.2-1.04.25,1.75.19,1.63.54,1.1,2.01,2.21,2.85,3.13,4.42,4.86,8.85,9.72,13.27,14.57,34.08,37.44,68.16,74.88,102.25,112.32,9.36,10.28,18.71,20.56,28.07,30.83,2.45,2.69,4.9,5.38,7.35,8.08,2.83,3.11,2.74,5,3.08,9.09.26,3.17.63,6.35.78,9.53.17,3.83-1.91,5-4.51,7.77s1.59,7.06,4.24,4.24c1.77-1.89,4.3-3.87,5.7-6.07,1.25-1.96.76-3.59.57-5.93-.26-3.18-.52-6.35-.78-9.53-.21-2.63.15-6.31-.87-8.7-.87-2.03-3.14-3.73-4.63-5.37-2.23-2.45-4.46-4.89-6.68-7.34-4.9-5.38-9.8-10.77-14.7-16.15-17.82-19.58-35.64-39.15-53.46-58.73-18.27-20.07-36.53-40.13-54.8-60.2-4.23-4.65-8.46-9.3-12.7-13.95-2-2.2-4.01-4.4-6.01-6.61s-4.5-6.09-7.04-7.73-6.64-.88-9.58-.88h-34.17c-1.62,0-3,1.37-3,3v30.95c0,3.45-1.15,9.39.41,12.49.83,1.65,3.46,3.33,4.83,4.57,1.95,1.78,3.91,3.55,5.86,5.33,15.17,13.8,30.35,27.59,45.52,41.39,30.35,27.59,60.7,55.18,91.04,82.77,8.32,7.57,16.64,15.13,24.96,22.7,1.54,1.4,3.43,3.79,5.37,4.63,1.6.68,4.12.26,5.82.26h16.23c3.86,0,3.87-6,0-6Z"/>
  <path class="cls-1" d="M146.46,121.07c6.59,6.59,13.19,13.19,19.78,19.78,3.42,3.42,8.72-1.88,5.3-5.3-6.59-6.59-13.19-13.19-19.78-19.78-3.42-3.42-8.72,1.88-5.3,5.3h0Z"/>
  <path class="cls-1" d="M209.83,153.09c-8.75,8.95-17.51,17.9-26.26,26.85-3.38,3.45,1.92,8.76,5.3,5.3,8.75-8.95,17.51-17.9,26.26-26.85,3.38-3.45-1.92-8.76-5.3-5.3h0Z"/>
  <path class="cls-1" d="M222.43,167.35c-8.48,8.48-16.96,16.96-25.44,25.44-3.42,3.42,1.88,8.72,5.3,5.3,8.48-8.48,16.96-16.96,25.44-25.44,3.42-3.42-1.88-8.72-5.3-5.3h0Z"/>
  <path class="cls-1" d="M141.9,171.67c19.61-19.61,39.23-39.23,58.84-58.84,4.1-4.1-2.26-10.47-6.36-6.36-19.61,19.61-39.23,39.23-58.84,58.84-4.1,4.1,2.26,10.47,6.36,6.36h0Z"/>
  <path class="cls-1" d="M155.77,186.01c20.04-20.04,40.07-40.07,60.11-60.11,4.1-4.1-2.26-10.47-6.36-6.36-20.04,20.04-40.07,40.07-60.11,60.11-4.1,4.1,2.26,10.47,6.36,6.36h0Z"/>
  <path class="cls-1" d="M215.88,125.9c3.06-3.59,5.68-7.95,4.53-12.86-.72-3.07-2.75-5.54-5.14-7.5s-4.98-3.86-8.14-4.43c-5-.9-9.29,1.81-12.76,5.13-4.2,4.01,2.17,10.37,6.36,6.36,1.29-1.24,3.09-2.91,4.84-2.66,1.16.17,2.57,1.34,3.33,1.95,3.2,2.57,3.52,4.22.61,7.64-3.74,4.38,2.6,10.78,6.36,6.36h0Z"/>
  <path class="cls-1" d="M135.54,165.31c-4.56,5.76-3.46,13.18,1.71,18.24s12.27,7.97,18.52,2.46c4.36-3.84-2.03-10.18-6.36-6.36-1.1.97-1.53.69-2.76-.05-1.09-.65-2.13-1.52-3.03-2.41-1.2-1.19-3.05-3.82-1.71-5.52,1.51-1.9,1.86-4.51,0-6.36-1.56-1.56-4.85-1.92-6.36,0h0Z"/>
  <path class="cls-1" d="M6.13,201.07v-12.84c0-1.73-.33-4,0-5.72.47-2.44,2.79-4.25,4.46-6.08,6.45-7.1,12.91-14.19,19.36-21.29,13.13-14.44,26.26-28.88,39.38-43.32,26.03-28.63,52.07-57.27,78.1-85.9,3.78-4.16,7.57-8.32,11.35-12.48,1.53-1.68,3.35-4.78,5.3-5.83,2.08-1.12,4.87-.57,7.19-.57h33.94l-3-3v35.67c0,1.52.5,4.01,0,5.47-.04.12.06.34,0,.45,1.19-2.35-2.94,1.39-2.88,1.33-3.22,2.93-6.45,5.86-9.72,8.75-10.99,9.72-22.27,19.11-33.34,28.73-2.91,2.53-5.8,5.07-8.68,7.63-.56.5-2.7,3.09-3.27,3.24-.46.13-1.32-.4-1.77-.46-3.62-.5-7.45-2.9-10.89-4.1-5.45-1.89-11.44-.87-8.39,6.25,1.32,3.09,3.3,5.86,4.92,8.8.33.6,1.11,1.59,1.2,2.28.25,1.89.21.02-.42,1.1-.82,1.4-3.15,2.88-4.36,3.99-1.94,1.77-3.87,3.55-5.8,5.33-11.1,10.23-22.13,20.53-33.15,30.85-12.93,12.11-25.84,24.24-38.84,36.28-3.37,3.12-6.75,6.24-10.13,9.35-2.5,2.29-5.31,6.03-8.48,7.25-1.49.57-4.07.33-5.67.46-2.54.21-5.08.41-7.62.62-1.38.11-3.46.7-4.81.2-1.57-.57-3.62-3.4-4.86-4.56-2.81-2.64-7.06,1.59-4.24,4.24,1.93,1.81,4.28,5.05,6.68,6.17,2.68,1.25,7.21-.06,10.09-.29,3.78-.31,7.61-.45,11.37-.93,3.29-.42,5.01-2.72,7.43-4.94,12.11-11.07,24.11-22.26,36.09-33.47,11.98-11.21,23.93-22.45,35.94-33.62,6.01-5.59,12.03-11.16,18.07-16.71,3.06-2.8,9.78-6.4,9.02-11.27-.51-3.25-2.91-6.37-4.53-9.13-.67-1.15-1.53-3.84-2.53-4.65-.13-.1-.18-.83-.3-.86-.41-.12-1.42,2.19-1.5,2.07.18.28,2.02.56,2.39.68,3.97,1.28,7.72,3.21,11.73,4.39s5.62.4,8.71-2.38c11.86-10.69,24.14-20.91,36.22-31.35,5.96-5.15,11.85-10.39,17.68-15.7,2.41-2.19,4.55-3.51,4.64-6.79.36-13.44,0-26.94,0-40.39,0-1.62-1.37-3-3-3h-30.95c-3.45,0-9.39-1.15-12.49.41-1.65.83-3.33,3.46-4.57,4.83-1.78,1.95-3.55,3.91-5.33,5.86-13.8,15.17-27.59,30.35-41.39,45.52-27.59,30.35-55.18,60.7-82.77,91.04-7.57,8.32-15.13,16.64-22.7,24.96-1.4,1.54-3.79,3.43-4.63,5.37-.68,1.6-.26,4.12-.26,5.82v16.23c0,3.86,6,3.87,6,0Z"/>
  <path class="cls-1" d="M87.31,117.33c-6.59,6.59-13.19,13.19-19.78,19.78-3.42,3.42,1.88,8.72,5.3,5.3,6.59-6.59,13.19-13.19,19.78-19.78,3.42-3.42-1.88-8.72-5.3-5.3h0Z"/>
  <path class="cls-1" d="M55.3,180.7c-8.95-8.75-17.9-17.51-26.85-26.26-3.45-3.38-8.76,1.92-5.3,5.3,8.95,8.75,17.9,17.51,26.85,26.26,3.45,3.38,8.76-1.92,5.3-5.3h0Z"/>
  <path class="cls-1" d="M41.03,193.3c-8.48-8.48-16.96-16.96-25.44-25.44-3.42-3.42-8.72,1.88-5.3,5.3,8.48,8.48,16.96,16.96,25.44,25.44,3.42,3.42,8.72-1.88,5.3-5.3h0Z"/>
  <path class="cls-1" d="M36.71,112.77c19.61,19.61,39.23,39.23,58.84,58.84,4.1,4.1,10.47-2.26,6.36-6.36-19.61-19.61-39.23-39.23-58.84-58.84-4.1-4.1-10.47,2.26-6.36,6.36h0Z"/>
  <path class="cls-1" d="M22.37,126.64c20.04,20.04,40.07,40.07,60.11,60.11,4.1,4.1,10.47-2.26,6.36-6.36-20.04-20.04-40.07-40.07-60.11-60.11-4.1-4.1-10.47,2.26-6.36,6.36h0Z"/>
  <path class="cls-1" d="M82.48,186.75c3.59,3.06,7.95,5.68,12.86,4.53,3.07-.72,5.54-2.75,7.5-5.14s3.86-4.98,4.43-8.14c.9-5-1.81-9.29-5.13-12.76-4.01-4.2-10.37,2.17-6.36,6.36,1.24,1.29,2.91,3.09,2.66,4.84-.17,1.16-1.34,2.57-1.95,3.33-2.57,3.2-4.22,3.52-7.64.61-4.38-3.74-10.78,2.6-6.36,6.36h0Z"/>
  <path class="cls-1" d="M43.08,106.41c-5.76-4.56-13.18-3.46-18.24,1.71s-7.97,12.27-2.46,18.52c3.84,4.36,10.18-2.03,6.36-6.36-.97-1.1-.69-1.53.05-2.76.65-1.09,1.52-2.13,2.41-3.03,1.19-1.2,3.82-3.05,5.52-1.71,1.9,1.51,4.51,1.86,6.36,0,1.56-1.56,1.92-4.85,0-6.36h0Z"/>
</svg>