<?xml version="1.0" encoding="UTF-8"?>
<svg id="Capa_1" data-name="Capa 1" xmlns="http://www.w3.org/2000/svg" viewBox="0 0 168.87 168.87">
  <defs>
    <style>
      .cls-1 {
        fill: #1d1d1b;
        stroke-width: 0px;
      }
    </style>
  </defs>
  <path class="cls-1" d="M6,29.78V3l-3,3h26.78C33.64,6,33.64,0,29.78,0H3C1.38,0,0,1.37,0,3v26.78c0,3.86,6,3.87,6,0h0Z"/>
  <path class="cls-1" d="M16.37,64.9c8.6-25.59,31.67-46.35,58.88-49.5,1.68-.19,3.73-1.8,2.89-3.8-1.32-3.13-2.64-6.27-3.95-9.4l-2.89,3.8c8.09.11,16.19.22,24.28.33l-2.59-4.51c-3.84,7.56-7.69,15.13-11.53,22.69h5.18c-2.91-4.55-5.83-9.11-8.74-13.66-2.07-3.24-7.27-.24-5.18,3.03,2.91,4.55,5.83,9.11,8.74,13.66,1.14,1.79,4.11,2.1,5.18,0,3.84-7.56,7.69-15.13,11.53-22.69,1.02-2.02-.22-4.48-2.59-4.51C87.49.22,79.4.11,71.31,0c-1.75-.02-3.66,1.97-2.89,3.8,1.32,3.13,2.64,6.27,3.95,9.4l2.89-3.8c-30.03,3.48-55.14,25.54-64.67,53.91-1.23,3.67,4.56,5.24,5.79,1.6h0Z"/>
  <path class="cls-1" d="M154.29,105.37c-9.64,25.25-33.64,44.91-60.93,46.95-1.77.13-3.63,1.84-2.89,3.8,1.19,3.18,2.38,6.37,3.57,9.55l2.89-3.8c-8.08-.44-16.16-.88-24.24-1.32l2.59,4.51c4.15-7.4,8.29-14.81,12.44-22.21h-5.18c2.73,4.67,5.45,9.34,8.18,14.01,1.95,3.33,7.13.32,5.18-3.03-2.73-4.67-5.45-9.34-8.18-14.01-1.12-1.92-4.07-1.98-5.18,0-4.15,7.4-8.29,14.81-12.44,22.21-1.15,2.06.32,4.39,2.59,4.51,8.08.44,16.16.88,24.24,1.32,1.83.1,3.56-2.02,2.89-3.8-1.19-3.18-2.38-6.37-3.57-9.55l-2.89,3.8c30.18-2.26,56.06-23.44,66.72-51.36,1.38-3.61-4.42-5.17-5.79-1.6h0Z"/>
  <path class="cls-1" d="M105.3,14.39c25.4,9.18,45.55,32.77,48.09,60.04.16,1.73,1.82,3.67,3.8,2.89,3.16-1.25,6.32-2.49,9.49-3.74l-3.8-2.89c-.29,8.09-.59,16.18-.88,24.26l4.51-2.59c-7.48-4.01-14.95-8.03-22.43-12.04v5.18c4.62-2.81,9.24-5.62,13.86-8.43,3.29-2,.28-7.19-3.03-5.18-4.62,2.81-9.24,5.62-13.86,8.43-1.86,1.13-2.03,4.09,0,5.18,7.48,4.01,14.95,8.03,22.43,12.04,2.04,1.1,4.43-.28,4.51-2.59.29-8.09.59-16.18.88-24.26.07-1.8-2-3.6-3.8-2.89-3.16,1.25-6.32,2.49-9.49,3.74l3.8,2.89c-2.8-30.12-24.37-55.66-52.49-65.83-3.64-1.31-5.2,4.48-1.6,5.79h0Z"/>
  <path class="cls-1" d="M61.58,151.31c-25.04-10.21-44.07-34.72-45.49-62.03-.09-1.82-1.86-3.57-3.8-2.89l-9.63,3.35,3.8,2.89c.62-8.07,1.25-16.14,1.87-24.21l-4.51,2.59c7.31,4.31,14.61,8.63,21.92,12.94v-5.18c-4.73,2.62-9.46,5.24-14.19,7.86-3.38,1.87-.36,7.06,3.03,5.18,4.73-2.62,9.46-5.24,14.19-7.86,1.99-1.1,1.9-4.06,0-5.18-7.31-4.31-14.61-8.63-21.92-12.94-2.08-1.23-4.34.38-4.51,2.59-.62,8.07-1.25,16.14-1.87,24.21-.14,1.87,2.04,3.5,3.8,2.89l9.63-3.35-3.8-2.89c1.58,30.23,22.24,56.54,49.9,67.82,3.57,1.46,5.13-4.35,1.6-5.79h0Z"/>
  <path class="cls-1" d="M162.87,138.1v26.78l3-3h-26.78c-3.86,0-3.87,6,0,6h26.78c1.62,0,3-1.37,3-3v-26.78c0-3.86-6-3.87-6,0h0Z"/>
  <path class="cls-1" d="M138.56,6h26.78l-3-3v26.78c0,3.86,6,3.87,6,0V3C168.33,1.38,166.96,0,165.33,0h-26.78c-3.86,0-3.87,6,0,6h0Z"/>
  <path class="cls-1" d="M30.24,162.87H3.46l3,3v-26.78c0-3.86-6-3.87-6,0v26.78c0,1.62,1.37,3,3,3h26.78c3.86,0,3.87-6,0-6h0Z"/>
  <path class="cls-1" d="M91.7,86.89c12.71-3.3,19.38-16.94,16.54-29.4s-14.71-20.28-26.98-18.72c-12.24,1.56-22.05,11.75-21.92,24.31.13,12.79,9.55,22.57,21.69,25.06,5.53,1.13,11.62.87,16.96,2.67,5,1.68,10.25,3.9,15.03,6.1,4.06,1.87,7.75,4.69,9.22,9.08,1.06,3.17.63,6.83.57,10.12-.03,1.69.54,6.58-1.09,7.55-.28.17-1.03-.05-1.34,0-6.44.96-13.77.02-20.26.02-10.06.01-20.13.02-30.19.03-7.33,0-15.35.95-22.64.03-1.46-.19-1.88-.28-2.39-1.86-1.12-3.43-.59-9.32-.19-12.86,1.02-9.14,11.25-13.74,19.11-15.63,3.75-.9,2.16-6.69-1.6-5.79-6.29,1.51-12.7,4.3-17.44,8.82-5.03,4.8-6.11,10.52-6.18,17.21-.05,5.42-.99,13.32,5.29,15.6,1.75.63,3.52.52,5.34.52,17.57-.02,35.14-.04,52.7-.06,6.25,0,12.61.32,18.86-.02,2.52-.14,5.38-.8,6.8-3.11,1.11-1.81.98-4.4,1.09-6.45.2-3.73.32-7.54.13-11.27-.71-14.38-15.52-17.96-26.4-22.7s-23.85-.85-32.19-10.4c-10.89-12.49-1.64-31.97,15.02-31.18,9.14.43,16.89,7.76,17.57,16.96s-3.89,17.31-12.7,19.6c-3.73.97-2.15,6.76,1.6,5.79h0Z"/>
</svg>