<?xml version="1.0" encoding="UTF-8"?>
<svg id="Capa_1" data-name="Capa 1" xmlns="http://www.w3.org/2000/svg" viewBox="0 0 179.83 179.96">
  <defs>
    <style>
      .cls-1 {
        fill: #1d1d1b;
        stroke-width: 0px;
      }
    </style>
  </defs>
  <g>
    <path class="cls-1" d="M93.22,54.67V3l-3,3h42.33l-2.59-4.51-3.51,6.55c-1,1.87-3.2,4.59-3.4,6.79s1.89,4.57,2.9,6.32l4.01,6.93,2.59-4.51h-41.67c-3.86,0-3.87,6,0,6h41.67c2.28,0,3.73-2.55,2.59-4.51-2.19-3.78-4.37-7.56-6.56-11.33v3.03c2.19-4.07,4.37-8.15,6.56-12.22,1.06-1.98-.25-4.51-2.59-4.51h-42.33c-1.62,0-3,1.37-3,3v51.67c0,3.86,6,3.87,6,0h0Z"/>
    <path class="cls-1" d="M87.35,50.76c-9.75,17.54-19.49,35.07-29.24,52.61l2.59-1.49h-11.01c-2.59,0-5.13-.56-6.92,1.61-2.78,3.38-4.73,8.03-6.94,11.79-9.27,15.75-18.55,31.5-27.82,47.25-2.53,4.3-5.07,8.61-7.6,12.91-1.16,1.96.32,4.51,2.59,4.51h173.85c2.28,0,3.74-2.55,2.59-4.51-6.42-11.02-12.83-22.05-19.25-33.07-4.74-8.14-9.48-16.28-14.22-24.42-2.69-4.61-5.1-9.63-8.16-14.01-1.48-2.11-3.03-2.13-5.49-2.13h-12.44l2.59,1.49c-9.98-17.51-19.96-35.02-29.94-52.54-1.91-3.35-7.1-.33-5.18,3.03,9.98,17.51,19.96,35.02,29.94,52.54.52.92,1.54,1.49,2.59,1.49h14.96l-2.59-1.49c14,24.05,28,48.1,42,72.15l2.59-4.51H2.99l2.59,4.51c14.15-24.02,28.3-48.05,42.44-72.07l-2.59,1.49h15.26c1.04,0,2.08-.57,2.59-1.49,9.75-17.54,19.49-35.07,29.24-52.61,1.88-3.38-3.3-6.41-5.18-3.03Z"/>
    <path class="cls-1" d="M61.07,129.15h-29.48c-3.86,0-3.87,6,0,6h29.48c3.86,0,3.87-6,0-6h0Z"/>
    <path class="cls-1" d="M128.25,153.07h30.44c3.86,0,3.87-6,0-6h-30.44c-3.86,0-3.87,6,0,6h0Z"/>
  </g>
  <g>
    <path class="cls-1" d="M66.77,75.78c-.18-6.32,2.74-12.19,8.07-15.63,3.23-2.09.23-7.28-3.03-5.18-7.09,4.58-11.28,12.34-11.04,20.81.11,3.85,6.11,3.87,6,0h0Z"/>
    <path class="cls-1" d="M77.64,25c-14.14,3.89-27.61,13.33-34.8,26.32-7.29,13.17-8.09,29.02-3.74,43.26,1.12,3.68,6.92,2.11,5.79-1.6-3.88-12.72-3.41-26.84,3.13-38.64,6.47-11.67,18.51-20.07,31.22-23.56,3.72-1.02,2.14-6.81-1.6-5.79h0Z"/>
    <path class="cls-1" d="M27.47,113.93c-12.44-20-12.47-47.84-1.35-68.47,4.83-8.95,11.59-17.77,19.49-24.19,9.68-7.86,21.91-12.39,34.07-14.6,3.79-.69,2.19-6.48-1.6-5.79C52.78,5.5,31.97,20.83,20.23,43.78c-11.4,22.31-11.28,51.74,2.06,73.17,2.04,3.27,7.23.26,5.18-3.03h0Z"/>
  </g>
  <g>
    <path class="cls-1" d="M105.3,59.92c5.16,3.72,7.63,9.84,7.13,16.09-.31,3.85,5.69,3.83,6,0,.68-8.48-3.28-16.35-10.1-21.28-3.14-2.26-6.13,2.94-3.03,5.18h0Z"/>
    <path class="cls-1" d="M139.16,93.71c11.29-20.08,4.56-44.23-15.77-55.17-3.4-1.83-6.43,3.35-3.03,5.18,17.43,9.38,23.36,29.63,13.62,46.96-1.9,3.37,3.29,6.4,5.18,3.03h0Z"/>
  </g>
  <path class="cls-1" d="M141.65,28.12c22.61,22.49,26.9,58.79,10.75,86.14-1.97,3.33,3.22,6.36,5.18,3.03,17.49-29.65,12.8-69.05-11.69-93.41-2.74-2.73-6.98,1.51-4.24,4.24h0Z"/>
</svg>