<?xml version="1.0" encoding="UTF-8"?>
<svg id="Capa_1" data-name="Capa 1" xmlns="http://www.w3.org/2000/svg" viewBox="0 0 192.22 192.3">
  <defs>
    <style>
      .cls-1 {
        fill: #1d1d1b;
        stroke-width: 0px;
      }
    </style>
  </defs>
  <path class="cls-1" d="M9.92,118.63c.07,11.71.18,23.43.08,35.14-.04,5.23-.06,10.46-.07,15.7-.01,7.54-2.29,20.73,8.06,22.46,4.37.73,9.22.15,13.62.15h137.35c6.7,0,13.57-.32,14.18-9.13.73-10.55,0-21.41,0-31.98v-31c0-3.86-6-3.87-6,0v58.24c0,2.58.84,6.87-2.48,7.87-1.02.31-2.61,0-3.66,0H21.33c-.57,0-1.3.12-1.87,0-4.84-.98-3.54-7.35-3.54-10.97,0-6.75.01-13.5.07-20.25.1-12.07,0-24.15-.07-36.22-.02-3.86-6.02-3.87-6,0h0Z"/>
  <path class="cls-1" d="M75.13,138.07c-5.26,4.56-10.52,9.11-15.78,13.67-1.14.99-1.19,3.27,0,4.24,5.26,4.3,10.52,8.59,15.78,12.89,2.97,2.42,7.24-1.8,4.24-4.24-5.26-4.3-10.52-8.59-15.78-12.89v4.24c5.26-4.56,10.52-9.11,15.78-13.67,2.92-2.53-1.34-6.76-4.24-4.24h0Z"/>
  <path class="cls-1" d="M95.81,170.65c2.22-11.04,4.44-22.07,6.67-33.11.76-3.77-5.02-5.38-5.79-1.6-2.22,11.04-4.44,22.07-6.67,33.11-.76,3.77,5.02,5.38,5.79,1.6h0Z"/>
  <path class="cls-1" d="M113.13,142.31c5.22,4.43,10.44,8.85,15.67,13.28v-4.24c-5.22,4.43-10.44,8.85-15.67,13.28-2.95,2.5,1.31,6.73,4.24,4.24,5.22-4.43,10.44-8.85,15.67-13.28,1.17-.99,1.16-3.26,0-4.24-5.22-4.43-10.44-8.85-15.67-13.28-2.93-2.48-7.19,1.74-4.24,4.24h0Z"/>
  <path class="cls-1" d="M9.14,102.41c52.03.83,104.11.43,156.15.16,4.33-.02,8.67-.05,13-.09,1.44-.01,2.88-.04,4.32-.05,3.34-.04,3.56-.97,3.56,2.27,0,2.23.19,4.69-.13,6.92-.61,4.35-3.25,4.01-6.7,4.01H16.7c-1.86,0-3.73.05-5.59,0-2.39-.06-4.3.1-4.97-2.89s-.59-10.23,3-10.33c3.85-.11,3.87-6.11,0-6s-7.34,1.23-8.56,5.1c-.91,2.88-.49,6.48-.45,9.45.04,2.33.03,4.64,1.37,6.66,3.22,4.84,9.55,4,14.6,4h155.96c4.05,0,8.71.59,12.7-.21,8.32-1.66,7.44-10.45,7.4-17.07s-2.99-8.01-9.57-7.92c-26.61.35-53.22.27-79.83.28-31.21,0-62.43.2-93.64-.29-3.86-.06-3.86,5.94,0,6Z"/>
  <path class="cls-1" d="M24.54,98.53c4.75-3.94,9.47-7.92,14.25-11.82,2.54-2.08,5.03-4.29,8.02-5.68,5.46-2.54,11.63-5.77,17.67-2.74s12.15,7.41,17.38,11.8c2.94,2.47,7.2-1.75,4.24-4.24-5.81-4.89-12.23-9.28-18.88-12.95-5.81-3.2-14.04-1.86-19.56,1.12-4.27,2.3-7.99,4.33-11.79,7.38-5.25,4.22-10.38,8.59-15.56,12.89-2.97,2.47,1.29,6.69,4.24,4.24h0Z"/>
  <path class="cls-1" d="M79.82,97.09c7.12-8.19,14.77-16.13,23.26-22.92,6.37-5.09,14.51-10.49,22.91-10.05s16.31,5.88,22.31,11.61c7.76,7.42,15.36,14.99,23.17,22.36,2.81,2.65,7.06-1.59,4.24-4.24-8.53-8.05-16.69-16.56-25.38-24.44-6.59-5.97-15.3-10.84-24.34-11.29s-17.68,4.57-24.72,9.91c-9.48,7.19-17.9,15.86-25.69,24.82-2.52,2.9,1.7,7.16,4.24,4.24h0Z"/>
  <path class="cls-1" d="M132.84,58.86c-2.57-5.7-6.25-11.16-12.24-13.65-3.73-1.55-8.91-2.72-12.84-1.2-3.08,1.19-5.78,4.06-8.31,6.15-3.78,3.13-7.41,6.42-11.21,9.52-6.74,5.49-5.57,15.57-1.24,22.46,2.05,3.26,7.24.25,5.18-3.03-1.92-3.05-2.75-6.36-2.6-9.96.17-4.15,3.75-5.88,6.67-8.32,2.2-1.83,4.31-3.77,6.49-5.62,1.56-1.32,3.14-2.65,4.78-3.87,3.63-2.69,7.95-2.31,11.93-.08s6.37,6.51,8.23,10.62c1.59,3.51,6.76.47,5.18-3.03h0Z"/>
  <path class="cls-1" d="M93.54,57.84c-8.57-9.7-17.15-19.41-25.72-29.11-2.56-2.9-6.79,1.36-4.24,4.24,8.57,9.7,17.15,19.41,25.72,29.11,2.56,2.9,6.79-1.36,4.24-4.24h0Z"/>
  <path class="cls-1" d="M106.04,48.07c-8.96-9.67-17.93-19.33-26.89-29-2.63-2.84-6.87,1.41-4.24,4.24,8.96,9.67,17.93,19.33,26.89,29,2.63,2.84,6.87-1.41,4.24-4.24h0Z"/>
  <path class="cls-1" d="M80.34,21.24c2.96-2.76,4.64-6.38,3.3-10.5-1.12-3.45-5.72-6.48-8.44-8.61-3.5-2.74-6.59-2.91-9.98-.1-5.28,4.37-11.11,8.6-15.97,13.44-2.99,2.97-4.03,7.35-1.47,11.01,1.57,2.24,3.92,4.06,5.8,6.05,1.63,1.72,3.35,3.47,5.83,3.82,4.85.69,8.48-4.95,11.75-7.73,2.99-2.55,6.19-4.84,9.18-7.39s-1.32-6.73-4.24-4.24-6.19,4.85-9.18,7.39c-1.95,1.66-5.19,6.1-8.09,5.02-.96-.36-2.17-2.39-2.97-3.21-1.82-1.86-4.16-3.72-2.37-6.49,1.58-2.45,5.65-4.79,7.91-6.63,1.95-1.58,5.82-6.11,8.25-6.56,2.02-.38,5.27,3.2,6.83,4.73,2,1.96,2.09,3.43-.39,5.74-2.83,2.64,1.42,6.87,4.24,4.24Z"/>
</svg>